<?xml version="1.0" encoding="UTF-8"?>
<svg xmlns="http://www.w3.org/2000/svg" width="1080" height="1920" viewBox="0 0 1080 1920">

  <defs>
    <linearGradient id="paper" x1="0" x2="0" y1="0" y2="1">
      <stop offset="0" stop-color="#fffdf8"/>
      <stop offset="1" stop-color="#f3f0e8"/>
    </linearGradient>
    <linearGradient id="sea" x1="0" x2="0" y1="0" y2="1">
      <stop offset="0" stop-color="#062836"/>
      <stop offset="0.58" stop-color="#0e3c4b"/>
      <stop offset="1" stop-color="#dceff3"/>
    </linearGradient>
    <linearGradient id="nightSea" x1="0" x2="0" y1="0" y2="1">
      <stop offset="0" stop-color="#061a29"/>
      <stop offset="0.65" stop-color="#0a3443"/>
      <stop offset="1" stop-color="#164f5f"/>
    </linearGradient>
    <linearGradient id="oldMap" x1="0" x2="1" y1="0" y2="1">
      <stop offset="0" stop-color="#f5daa1"/>
      <stop offset="1" stop-color="#d4b66f"/>
    </linearGradient>
    <filter id="softShadow" x="-20%" y="-20%" width="140%" height="140%">
      <feDropShadow dx="0" dy="14" stdDeviation="14" flood-color="#000" flood-opacity="0.25"/>
    </filter>
    <filter id="inkShadow" x="-20%" y="-20%" width="140%" height="140%">
      <feDropShadow dx="0" dy="6" stdDeviation="0" flood-color="#111" flood-opacity="0.16"/>
    </filter>
    <clipPath id="artClip">
      <rect x="20" y="334" width="1040" height="948" rx="20"/>
    </clipPath>
  </defs>
  <rect width="1080" height="1920" fill="#f7f5ee"/>

  <rect x="0" y="0" width="1080" height="338" fill="url(#paper)"/>
  <path d="M0 326 C165 344 298 318 455 333 C626 349 777 318 1080 330 L1080 356 L0 356 Z" fill="#07313d"/>
  <g transform="translate(58 55.115566076571234)">
    <circle cx="0" cy="0" r="24" fill="#071821"/>
    <circle cx="0" cy="0" r="14" fill="#00a6d6"/>
    <circle cx="0" cy="0" r="7" fill="#fff"/>
    <text x="42" y="-5" font-family="Apple SD Gothic Neo, sans-serif" font-size="25" font-weight="900" fill="#111" letter-spacing="-1">내 채널</text>
    <text x="42" y="18" font-family="Apple SD Gothic Neo, sans-serif" font-size="17" font-weight="800" fill="#656565">@mychannel</text>
  </g>
  <g font-family="Apple SD Gothic Neo, sans-serif" text-anchor="middle" fill="#070707" font-weight="900" letter-spacing="-2.4">
    <text x="540" y="132" font-size="54">바다 한가운데 잠든 왕릉</text>
    <text x="540" y="199" font-size="54">사람들이 가장 궁금해한</text>
    <text x="540" y="266" font-size="62">3가지</text>
  </g>

  <g clip-path="url(#artClip)">
    <rect x="20" y="334" width="1040" height="948" fill="#071c2d"/>
    <path d="M20 1038 C208 979 385 1041 549 1002 C747 954 887 1017 1060 966 L1060 1282 L20 1282 Z" fill="#e6f1f4"/>
    <g opacity="0.72">
      <circle cx="901" cy="903" r="2" fill="#fff"/><circle cx="984" cy="950" r="3" fill="#fff"/><circle cx="27" cy="997" r="4" fill="#fff"/><circle cx="110" cy="1044" r="5" fill="#fff"/><circle cx="193" cy="401" r="2" fill="#fff"/><circle cx="276" cy="448" r="3" fill="#fff"/><circle cx="359" cy="495" r="4" fill="#fff"/><circle cx="442" cy="542" r="5" fill="#fff"/><circle cx="525" cy="589" r="2" fill="#fff"/><circle cx="608" cy="636" r="3" fill="#fff"/><circle cx="691" cy="683" r="4" fill="#fff"/><circle cx="774" cy="730" r="5" fill="#fff"/><circle cx="857" cy="777" r="2" fill="#fff"/><circle cx="940" cy="824" r="3" fill="#fff"/><circle cx="1023" cy="871" r="4" fill="#fff"/><circle cx="66" cy="918" r="5" fill="#fff"/><circle cx="149" cy="965" r="2" fill="#fff"/><circle cx="232" cy="1012" r="3" fill="#fff"/><circle cx="315" cy="369" r="4" fill="#fff"/><circle cx="398" cy="416" r="5" fill="#fff"/><circle cx="481" cy="463" r="2" fill="#fff"/><circle cx="564" cy="510" r="3" fill="#fff"/><circle cx="647" cy="557" r="4" fill="#fff"/><circle cx="730" cy="604" r="5" fill="#fff"/><circle cx="813" cy="651" r="2" fill="#fff"/><circle cx="896" cy="698" r="3" fill="#fff"/><circle cx="979" cy="745" r="4" fill="#fff"/><circle cx="22" cy="792" r="5" fill="#fff"/><circle cx="105" cy="839" r="2" fill="#fff"/><circle cx="188" cy="886" r="3" fill="#fff"/><circle cx="271" cy="933" r="4" fill="#fff"/><circle cx="354" cy="980" r="5" fill="#fff"/><circle cx="437" cy="1027" r="2" fill="#fff"/><circle cx="520" cy="384" r="3" fill="#fff"/><circle cx="603" cy="431" r="4" fill="#fff"/><circle cx="686" cy="478" r="5" fill="#fff"/><circle cx="769" cy="525" r="2" fill="#fff"/><circle cx="852" cy="572" r="3" fill="#fff"/><circle cx="935" cy="619" r="4" fill="#fff"/><circle cx="1018" cy="666" r="5" fill="#fff"/><circle cx="61" cy="713" r="2" fill="#fff"/><circle cx="144" cy="760" r="3" fill="#fff"/><circle cx="227" cy="807" r="4" fill="#fff"/><circle cx="310" cy="854" r="5" fill="#fff"/><circle cx="393" cy="901" r="2" fill="#fff"/><circle cx="476" cy="948" r="3" fill="#fff"/><circle cx="559" cy="995" r="4" fill="#fff"/><circle cx="642" cy="1042" r="5" fill="#fff"/><circle cx="725" cy="399" r="2" fill="#fff"/><circle cx="808" cy="446" r="3" fill="#fff"/><circle cx="891" cy="493" r="4" fill="#fff"/><circle cx="974" cy="540" r="5" fill="#fff"/>
    </g>
    <g transform="translate(540 824) scale(1.2)" filter="url(#inkShadow)">
      <path d="M-308 -295 C-204 -432 209 -432 308 -295 L334 372 H-334 Z" fill="#111" stroke="#e8c859" stroke-width="12"/>
      <path d="M-260 -254 C-178 -358 178 -358 260 -254 L284 330 H-284 Z" fill="#201e18" stroke="#ffdf68" stroke-width="8"/>
      <path d="M0 -330 V338" stroke="#ffdf68" stroke-width="7"/>
      <g transform="translate(-28.63744389986744 0) rotate(-1.8676593847739635 -8 40)">
        <path d="M-250 -246 C-152 -338 -48 -363 -8 -320 L-8 338 H-250 Z" fill="#181711" stroke="#ffdf68" stroke-width="7"/>
        <path d="M-150 -210 V292 M-54 -280 V317" stroke="#40331b" stroke-width="10"/>
      </g>
      <g transform="translate(28.63744389986744 0) rotate(1.8676593847739635 8 40)">
        <path d="M250 -246 C152 -338 48 -363 8 -320 L8 338 H250 Z" fill="#181711" stroke="#ffdf68" stroke-width="7"/>
        <path d="M150 -210 V292 M54 -280 V317" stroke="#40331b" stroke-width="10"/>
      </g>
      <path d="M-56 -35 C-14 -90 36 -90 66 -35 L88 338 H-96 Z" fill="#ffd760" opacity="0.3200744538580472"/>
    </g>

  <g transform="translate(169 1118) scale(1.14)" stroke="#050505" stroke-width="12" stroke-linecap="round" stroke-linejoin="round" fill="none">
    <circle cx="0" cy="-102" r="38" fill="#050505" stroke="none"/>
    <path d="M0 -62 L0 55"/>
    <path d="M0 -26 L-70 -27.213720945541382"/>
    <path d="M0 -26 L78 -20.786279054458618"/>
    <path d="M0 55 L-52 150"/>
    <path d="M0 55 L52 150"/>
  </g>
  </g>

  <g font-family="Apple SD Gothic Neo, sans-serif" fill="#090909" text-anchor="middle" font-weight="900" letter-spacing="-2.2">
    <text x="540" y="1378" font-size="68">셋째, 묻힌 것은 무덤인지</text>
    <text x="540" y="1460" font-size="68">누군가 숨긴 기록인지</text>
  </g>

  <g transform="translate(0 0)" font-family="Apple SD Gothic Neo, sans-serif">
    <rect x="70" y="1620" width="62" height="62" rx="31" fill="#080808"/>
    <text x="150" y="1658" font-size="22" font-weight="900" fill="#111">@mychannel</text>
    <rect x="292" y="1623" width="85" height="44" rx="22" fill="#f2f2f2" stroke="#d7d7d7"/>
    <text x="334" y="1653" font-size="20" font-weight="900" fill="#111" text-anchor="middle">구독</text>
    <rect x="70" y="1705" width="940" height="44" rx="12" fill="#a1a1a1"/>
    <rect x="70" y="1705" width="831.3440860215054" height="44" rx="12" fill="#111"/>
    <text x="94" y="1734" font-size="18" font-weight="800" fill="#fff">original edit with mystery beat</text>
  </g>
</svg>