<?xml version="1.0" encoding="UTF-8"?>
<svg xmlns="http://www.w3.org/2000/svg" width="1080" height="1920" viewBox="0 0 1080 1920">

  <defs>
    <linearGradient id="paper" x1="0" x2="0" y1="0" y2="1">
      <stop offset="0" stop-color="#fffdf8"/>
      <stop offset="1" stop-color="#f3f0e8"/>
    </linearGradient>
    <linearGradient id="sea" x1="0" x2="0" y1="0" y2="1">
      <stop offset="0" stop-color="#062836"/>
      <stop offset="0.58" stop-color="#0e3c4b"/>
      <stop offset="1" stop-color="#dceff3"/>
    </linearGradient>
    <linearGradient id="nightSea" x1="0" x2="0" y1="0" y2="1">
      <stop offset="0" stop-color="#061a29"/>
      <stop offset="0.65" stop-color="#0a3443"/>
      <stop offset="1" stop-color="#164f5f"/>
    </linearGradient>
    <linearGradient id="oldMap" x1="0" x2="1" y1="0" y2="1">
      <stop offset="0" stop-color="#f5daa1"/>
      <stop offset="1" stop-color="#d4b66f"/>
    </linearGradient>
    <filter id="softShadow" x="-20%" y="-20%" width="140%" height="140%">
      <feDropShadow dx="0" dy="14" stdDeviation="14" flood-color="#000" flood-opacity="0.25"/>
    </filter>
    <filter id="inkShadow" x="-20%" y="-20%" width="140%" height="140%">
      <feDropShadow dx="0" dy="6" stdDeviation="0" flood-color="#111" flood-opacity="0.16"/>
    </filter>
    <clipPath id="artClip">
      <rect x="20" y="334" width="1040" height="948" rx="20"/>
    </clipPath>
  </defs>
  <rect width="1080" height="1920" fill="#f7f5ee"/>

  <rect x="0" y="0" width="1080" height="338" fill="url(#paper)"/>
  <path d="M0 326 C165 344 298 318 455 333 C626 349 777 318 1080 330 L1080 356 L0 356 Z" fill="#07313d"/>
  <g transform="translate(58 53.984206819218755)">
    <circle cx="0" cy="0" r="24" fill="#071821"/>
    <circle cx="0" cy="0" r="14" fill="#00a6d6"/>
    <circle cx="0" cy="0" r="7" fill="#fff"/>
    <text x="42" y="-5" font-family="Apple SD Gothic Neo, sans-serif" font-size="25" font-weight="900" fill="#111" letter-spacing="-1">내 채널</text>
    <text x="42" y="18" font-family="Apple SD Gothic Neo, sans-serif" font-size="17" font-weight="800" fill="#656565">@mychannel</text>
  </g>
  <g font-family="Apple SD Gothic Neo, sans-serif" text-anchor="middle" fill="#070707" font-weight="900" letter-spacing="-2.4">
    <text x="540" y="132" font-size="54">바다 한가운데 잠든 왕릉</text>
    <text x="540" y="199" font-size="54">사람들이 가장 궁금해한</text>
    <text x="540" y="266" font-size="62">3가지</text>
  </g>

  <g clip-path="url(#artClip)">
    <rect x="20" y="334" width="1040" height="948" fill="#071c2d"/>
    <path d="M20 1038 C208 979 385 1041 549 1002 C747 954 887 1017 1060 966 L1060 1282 L20 1282 Z" fill="#e6f1f4"/>
    <g opacity="0.72">
      <circle cx="221" cy="444" r="2" fill="#fff"/><circle cx="304" cy="491" r="3" fill="#fff"/><circle cx="387" cy="538" r="4" fill="#fff"/><circle cx="470" cy="585" r="5" fill="#fff"/><circle cx="553" cy="632" r="2" fill="#fff"/><circle cx="636" cy="679" r="3" fill="#fff"/><circle cx="719" cy="726" r="4" fill="#fff"/><circle cx="802" cy="773" r="5" fill="#fff"/><circle cx="885" cy="820" r="2" fill="#fff"/><circle cx="968" cy="867" r="3" fill="#fff"/><circle cx="1051" cy="914" r="4" fill="#fff"/><circle cx="94" cy="961" r="5" fill="#fff"/><circle cx="177" cy="1008" r="2" fill="#fff"/><circle cx="260" cy="365" r="3" fill="#fff"/><circle cx="343" cy="412" r="4" fill="#fff"/><circle cx="426" cy="459" r="5" fill="#fff"/><circle cx="509" cy="506" r="2" fill="#fff"/><circle cx="592" cy="553" r="3" fill="#fff"/><circle cx="675" cy="600" r="4" fill="#fff"/><circle cx="758" cy="647" r="5" fill="#fff"/><circle cx="841" cy="694" r="2" fill="#fff"/><circle cx="924" cy="741" r="3" fill="#fff"/><circle cx="1007" cy="788" r="4" fill="#fff"/><circle cx="50" cy="835" r="5" fill="#fff"/><circle cx="133" cy="882" r="2" fill="#fff"/><circle cx="216" cy="929" r="3" fill="#fff"/><circle cx="299" cy="976" r="4" fill="#fff"/><circle cx="382" cy="1023" r="5" fill="#fff"/><circle cx="465" cy="380" r="2" fill="#fff"/><circle cx="548" cy="427" r="3" fill="#fff"/><circle cx="631" cy="474" r="4" fill="#fff"/><circle cx="714" cy="521" r="5" fill="#fff"/><circle cx="797" cy="568" r="2" fill="#fff"/><circle cx="880" cy="615" r="3" fill="#fff"/><circle cx="963" cy="662" r="4" fill="#fff"/><circle cx="1046" cy="709" r="5" fill="#fff"/><circle cx="89" cy="756" r="2" fill="#fff"/><circle cx="172" cy="803" r="3" fill="#fff"/><circle cx="255" cy="850" r="4" fill="#fff"/><circle cx="338" cy="897" r="5" fill="#fff"/><circle cx="421" cy="944" r="2" fill="#fff"/><circle cx="504" cy="991" r="3" fill="#fff"/><circle cx="587" cy="1038" r="4" fill="#fff"/><circle cx="670" cy="395" r="5" fill="#fff"/><circle cx="753" cy="442" r="2" fill="#fff"/><circle cx="836" cy="489" r="3" fill="#fff"/><circle cx="919" cy="536" r="4" fill="#fff"/><circle cx="1002" cy="583" r="5" fill="#fff"/><circle cx="45" cy="630" r="2" fill="#fff"/><circle cx="128" cy="677" r="3" fill="#fff"/><circle cx="211" cy="724" r="4" fill="#fff"/><circle cx="294" cy="771" r="5" fill="#fff"/>
    </g>
    <g transform="translate(540 824) scale(1.2)" filter="url(#inkShadow)">
      <path d="M-308 -295 C-204 -432 209 -432 308 -295 L334 372 H-334 Z" fill="#111" stroke="#e8c859" stroke-width="12"/>
      <path d="M-260 -254 C-178 -358 178 -358 260 -254 L284 330 H-284 Z" fill="#201e18" stroke="#ffdf68" stroke-width="8"/>
      <path d="M0 -330 V338" stroke="#ffdf68" stroke-width="7"/>
      <g transform="translate(-91.48459175022815 0) rotate(-5.96638641849314 -8 40)">
        <path d="M-250 -246 C-152 -338 -48 -363 -8 -320 L-8 338 H-250 Z" fill="#181711" stroke="#ffdf68" stroke-width="7"/>
        <path d="M-150 -210 V292 M-54 -280 V317" stroke="#40331b" stroke-width="10"/>
      </g>
      <g transform="translate(91.48459175022815 0) rotate(5.96638641849314 8 40)">
        <path d="M250 -246 C152 -338 48 -363 8 -320 L8 338 H250 Z" fill="#181711" stroke="#ffdf68" stroke-width="7"/>
        <path d="M150 -210 V292 M54 -280 V317" stroke="#40331b" stroke-width="10"/>
      </g>
      <path d="M-56 -35 C-14 -90 36 -90 66 -35 L88 338 H-96 Z" fill="#ffd760" opacity="0.6274789813869854"/>
    </g>

  <g transform="translate(169 1118) scale(1.14)" stroke="#050505" stroke-width="12" stroke-linecap="round" stroke-linejoin="round" fill="none">
    <circle cx="0" cy="-102" r="38" fill="#050505" stroke="none"/>
    <path d="M0 -62 L0 55"/>
    <path d="M0 -26 L-70 12.277248948519613"/>
    <path d="M0 -26 L78 -60.27724894851961"/>
    <path d="M0 55 L-52 150"/>
    <path d="M0 55 L52 150"/>
  </g>
  </g>

  <g font-family="Apple SD Gothic Neo, sans-serif" fill="#090909" text-anchor="middle" font-weight="900" letter-spacing="-2.2">
    <text x="540" y="1378" font-size="68">셋째, 묻힌 것은 무덤인지</text>
    <text x="540" y="1460" font-size="68">누군가 숨긴 기록인지</text>
  </g>

  <g transform="translate(0 0)" font-family="Apple SD Gothic Neo, sans-serif">
    <rect x="70" y="1620" width="62" height="62" rx="31" fill="#080808"/>
    <text x="150" y="1658" font-size="22" font-weight="900" fill="#111">@mychannel</text>
    <rect x="292" y="1623" width="85" height="44" rx="22" fill="#f2f2f2" stroke="#d7d7d7"/>
    <text x="334" y="1653" font-size="20" font-weight="900" fill="#111" text-anchor="middle">구독</text>
    <rect x="70" y="1705" width="940" height="44" rx="12" fill="#a1a1a1"/>
    <rect x="70" y="1705" width="932.4193548387096" height="44" rx="12" fill="#111"/>
    <text x="94" y="1734" font-size="18" font-weight="800" fill="#fff">original edit with mystery beat</text>
  </g>
</svg>