<?xml version="1.0" encoding="UTF-8"?>
<svg xmlns="http://www.w3.org/2000/svg" width="1080" height="1920" viewBox="0 0 1080 1920">

  <defs>
    <linearGradient id="paper" x1="0" x2="0" y1="0" y2="1">
      <stop offset="0" stop-color="#fffdf8"/>
      <stop offset="1" stop-color="#f3f0e8"/>
    </linearGradient>
    <linearGradient id="sea" x1="0" x2="0" y1="0" y2="1">
      <stop offset="0" stop-color="#062836"/>
      <stop offset="0.58" stop-color="#0e3c4b"/>
      <stop offset="1" stop-color="#dceff3"/>
    </linearGradient>
    <linearGradient id="nightSea" x1="0" x2="0" y1="0" y2="1">
      <stop offset="0" stop-color="#061a29"/>
      <stop offset="0.65" stop-color="#0a3443"/>
      <stop offset="1" stop-color="#164f5f"/>
    </linearGradient>
    <linearGradient id="oldMap" x1="0" x2="1" y1="0" y2="1">
      <stop offset="0" stop-color="#f5daa1"/>
      <stop offset="1" stop-color="#d4b66f"/>
    </linearGradient>
    <filter id="softShadow" x="-20%" y="-20%" width="140%" height="140%">
      <feDropShadow dx="0" dy="14" stdDeviation="14" flood-color="#000" flood-opacity="0.25"/>
    </filter>
    <filter id="inkShadow" x="-20%" y="-20%" width="140%" height="140%">
      <feDropShadow dx="0" dy="6" stdDeviation="0" flood-color="#111" flood-opacity="0.16"/>
    </filter>
    <clipPath id="artClip">
      <rect x="20" y="334" width="1040" height="948" rx="20"/>
    </clipPath>
  </defs>
  <rect width="1080" height="1920" fill="#f7f5ee"/>

  <rect x="0" y="0" width="1080" height="338" fill="url(#paper)"/>
  <path d="M0 326 C165 344 298 318 455 333 C626 349 777 318 1080 330 L1080 356 L0 356 Z" fill="#07313d"/>
  <g transform="translate(58 56.00152924082893)">
    <circle cx="0" cy="0" r="24" fill="#071821"/>
    <circle cx="0" cy="0" r="14" fill="#00a6d6"/>
    <circle cx="0" cy="0" r="7" fill="#fff"/>
    <text x="42" y="-5" font-family="Apple SD Gothic Neo, sans-serif" font-size="25" font-weight="900" fill="#111" letter-spacing="-1">내 채널</text>
    <text x="42" y="18" font-family="Apple SD Gothic Neo, sans-serif" font-size="17" font-weight="800" fill="#656565">@mychannel</text>
  </g>
  <g font-family="Apple SD Gothic Neo, sans-serif" text-anchor="middle" fill="#070707" font-weight="900" letter-spacing="-2.4">
    <text x="540" y="132" font-size="54">바다 한가운데 잠든 왕릉</text>
    <text x="540" y="199" font-size="54">사람들이 가장 궁금해한</text>
    <text x="540" y="266" font-size="62">3가지</text>
  </g>

  <g clip-path="url(#artClip)">
    <rect x="20" y="334" width="1040" height="948" fill="#071c2d"/>
    <path d="M20 1038 C208 979 385 1041 549 1002 C747 954 887 1017 1060 966 L1060 1282 L20 1282 Z" fill="#e6f1f4"/>
    <g opacity="0.72">
      <circle cx="838" cy="861" r="2" fill="#fff"/><circle cx="921" cy="908" r="3" fill="#fff"/><circle cx="1004" cy="955" r="4" fill="#fff"/><circle cx="47" cy="1002" r="5" fill="#fff"/><circle cx="130" cy="1049" r="2" fill="#fff"/><circle cx="213" cy="406" r="3" fill="#fff"/><circle cx="296" cy="453" r="4" fill="#fff"/><circle cx="379" cy="500" r="5" fill="#fff"/><circle cx="462" cy="547" r="2" fill="#fff"/><circle cx="545" cy="594" r="3" fill="#fff"/><circle cx="628" cy="641" r="4" fill="#fff"/><circle cx="711" cy="688" r="5" fill="#fff"/><circle cx="794" cy="735" r="2" fill="#fff"/><circle cx="877" cy="782" r="3" fill="#fff"/><circle cx="960" cy="829" r="4" fill="#fff"/><circle cx="1043" cy="876" r="5" fill="#fff"/><circle cx="86" cy="923" r="2" fill="#fff"/><circle cx="169" cy="970" r="3" fill="#fff"/><circle cx="252" cy="1017" r="4" fill="#fff"/><circle cx="335" cy="374" r="5" fill="#fff"/><circle cx="418" cy="421" r="2" fill="#fff"/><circle cx="501" cy="468" r="3" fill="#fff"/><circle cx="584" cy="515" r="4" fill="#fff"/><circle cx="667" cy="562" r="5" fill="#fff"/><circle cx="750" cy="609" r="2" fill="#fff"/><circle cx="833" cy="656" r="3" fill="#fff"/><circle cx="916" cy="703" r="4" fill="#fff"/><circle cx="999" cy="750" r="5" fill="#fff"/><circle cx="42" cy="797" r="2" fill="#fff"/><circle cx="125" cy="844" r="3" fill="#fff"/><circle cx="208" cy="891" r="4" fill="#fff"/><circle cx="291" cy="938" r="5" fill="#fff"/><circle cx="374" cy="985" r="2" fill="#fff"/><circle cx="457" cy="1032" r="3" fill="#fff"/><circle cx="540" cy="389" r="4" fill="#fff"/><circle cx="623" cy="436" r="5" fill="#fff"/><circle cx="706" cy="483" r="2" fill="#fff"/><circle cx="789" cy="530" r="3" fill="#fff"/><circle cx="872" cy="577" r="4" fill="#fff"/><circle cx="955" cy="624" r="5" fill="#fff"/><circle cx="1038" cy="671" r="2" fill="#fff"/><circle cx="81" cy="718" r="3" fill="#fff"/><circle cx="164" cy="765" r="4" fill="#fff"/><circle cx="247" cy="812" r="5" fill="#fff"/><circle cx="330" cy="859" r="2" fill="#fff"/><circle cx="413" cy="906" r="3" fill="#fff"/><circle cx="496" cy="953" r="4" fill="#fff"/><circle cx="579" cy="1000" r="5" fill="#fff"/><circle cx="662" cy="1047" r="2" fill="#fff"/><circle cx="745" cy="404" r="3" fill="#fff"/><circle cx="828" cy="451" r="4" fill="#fff"/><circle cx="911" cy="498" r="5" fill="#fff"/>
    </g>
    <g transform="translate(540 824) scale(1.2)" filter="url(#inkShadow)">
      <path d="M-308 -295 C-204 -432 209 -432 308 -295 L334 372 H-334 Z" fill="#111" stroke="#e8c859" stroke-width="12"/>
      <path d="M-260 -254 C-178 -358 178 -358 260 -254 L284 330 H-284 Z" fill="#201e18" stroke="#ffdf68" stroke-width="8"/>
      <path d="M0 -330 V338" stroke="#ffdf68" stroke-width="7"/>
      <g transform="translate(-16.39069071285189 0) rotate(-1.0689580899686013 -8 40)">
        <path d="M-250 -246 C-152 -338 -48 -363 -8 -320 L-8 338 H-250 Z" fill="#181711" stroke="#ffdf68" stroke-width="7"/>
        <path d="M-150 -210 V292 M-54 -280 V317" stroke="#40331b" stroke-width="10"/>
      </g>
      <g transform="translate(16.39069071285189 0) rotate(1.0689580899686013 8 40)">
        <path d="M250 -246 C152 -338 48 -363 8 -320 L8 338 H250 Z" fill="#181711" stroke="#ffdf68" stroke-width="7"/>
        <path d="M150 -210 V292 M54 -280 V317" stroke="#40331b" stroke-width="10"/>
      </g>
      <path d="M-56 -35 C-14 -90 36 -90 66 -35 L88 338 H-96 Z" fill="#ffd760" opacity="0.2601718567476451"/>
    </g>

  <g transform="translate(169 1118) scale(1.14)" stroke="#050505" stroke-width="12" stroke-linecap="round" stroke-linejoin="round" fill="none">
    <circle cx="0" cy="-102" r="38" fill="#050505" stroke="none"/>
    <path d="M0 -62 L0 55"/>
    <path d="M0 -26 L-70 -13.681924894913223"/>
    <path d="M0 -26 L78 -34.31807510508678"/>
    <path d="M0 55 L-52 150"/>
    <path d="M0 55 L52 150"/>
  </g>
  </g>

  <g font-family="Apple SD Gothic Neo, sans-serif" fill="#090909" text-anchor="middle" font-weight="900" letter-spacing="-2.2">
    <text x="540" y="1378" font-size="68">셋째, 묻힌 것은 무덤인지</text>
    <text x="540" y="1460" font-size="68">누군가 숨긴 기록인지</text>
  </g>

  <g transform="translate(0 0)" font-family="Apple SD Gothic Neo, sans-serif">
    <rect x="70" y="1620" width="62" height="62" rx="31" fill="#080808"/>
    <text x="150" y="1658" font-size="22" font-weight="900" fill="#111">@mychannel</text>
    <rect x="292" y="1623" width="85" height="44" rx="22" fill="#f2f2f2" stroke="#d7d7d7"/>
    <text x="334" y="1653" font-size="20" font-weight="900" fill="#111" text-anchor="middle">구독</text>
    <rect x="70" y="1705" width="940" height="44" rx="12" fill="#a1a1a1"/>
    <rect x="70" y="1705" width="813.6559139784946" height="44" rx="12" fill="#111"/>
    <text x="94" y="1734" font-size="18" font-weight="800" fill="#fff">original edit with mystery beat</text>
  </g>
</svg>