<?xml version="1.0" encoding="UTF-8"?>
<svg xmlns="http://www.w3.org/2000/svg" width="1080" height="1920" viewBox="0 0 1080 1920">

  <defs>
    <linearGradient id="pageBg" x1="0" x2="0" y1="0" y2="1">
      <stop offset="0" stop-color="#ffffff"/>
      <stop offset="0.58" stop-color="#ffffff"/>
      <stop offset="1" stop-color="#d7d7d7"/>
    </linearGradient>
    <linearGradient id="clubBg" x1="0" x2="1" y1="0" y2="1">
      <stop offset="0" stop-color="#140917"/>
      <stop offset="0.45" stop-color="#2b1722"/>
      <stop offset="1" stop-color="#5d2e16"/>
    </linearGradient>
    <filter id="softShadow" x="-20%" y="-20%" width="140%" height="140%">
      <feDropShadow dx="0" dy="13" stdDeviation="12" flood-color="#000" flood-opacity="0.32"/>
    </filter>
    <filter id="captionGlow" x="-20%" y="-20%" width="140%" height="140%">
      <feDropShadow dx="0" dy="4" stdDeviation="0" flood-color="#000" flood-opacity="0.9"/>
      <feDropShadow dx="0" dy="0" stdDeviation="6" flood-color="#000" flood-opacity="0.65"/>
    </filter>
    <clipPath id="mediaClip">
      <rect x="0" y="550" width="1080" height="620"/>
    </clipPath>
  </defs>
  <rect width="1080" height="1920" fill="url(#pageBg)"/>

  <rect x="0" y="0" width="1080" height="550" fill="#fff"/>
  <g font-family="AppleMyungjo, Hiragino Mincho ProN, serif" text-anchor="middle" fill="#050505" font-weight="900" letter-spacing="-6">
    <text x="540" y="302" font-size="92">요즘 MZ들의</text>
    <text x="540" y="420" font-size="92">신박한 헌팅 방법</text>
  </g>
  <g opacity="0.9108591449765588">
    <rect x="334" y="260" width="412" height="58" rx="29" fill="#111" opacity="0.68"/>
    <text x="540" y="298" font-family="Apple SD Gothic Neo, sans-serif" font-size="27" font-weight="800" fill="#fff" text-anchor="middle">제일 기억에 남는 한마디는?</text>
  </g>

  <g clip-path="url(#mediaClip)">
    <g transform="translate(-14.975280728163424 0.955272496118331) scale(1.14)">

  <rect x="0" y="550" width="1080" height="620" fill="url(#clubBg)"/>
  <rect x="0" y="550" width="1080" height="620" fill="#000" opacity="0.16"/>
  <circle cx="28" cy="574" r="8.634976249348854" fill="#46d6ff" opacity="0.35"/><circle cx="111" cy="621" r="10.094791555369667" fill="#ffcf28" opacity="0.43999999999999995"/><circle cx="194" cy="668" r="13.0110950884923" fill="#ff4fc7" opacity="0.53"/><circle cx="277" cy="715" r="18.507130273413043" fill="#ff6d22" opacity="0.62"/><circle cx="360" cy="762" r="25.032267634132445" fill="#fff7b5" opacity="0.35"/><circle cx="443" cy="609" r="9.969220851487844" fill="#46d6ff" opacity="0.43999999999999995"/><circle cx="526" cy="656" r="12.346844800613233" fill="#ffcf28" opacity="0.53"/><circle cx="609" cy="703" r="13.846720336690879" fill="#ff4fc7" opacity="0.62"/><circle cx="692" cy="750" r="17.06020809515313" fill="#ff6d22" opacity="0.35"/><circle cx="775" cy="597" r="22.802522234901936" fill="#fff7b5" opacity="0.43999999999999995"/><circle cx="858" cy="644" r="9.267766952966372" fill="#46d6ff" opacity="0.53"/><circle cx="941" cy="691" r="13.900734214192347" fill="#ffcf28" opacity="0.62"/><circle cx="1024" cy="738" r="16.045358103491363" fill="#ff4fc7" opacity="0.35"/><circle cx="87" cy="585" r="17.624722325923837" fill="#ff6d22" opacity="0.43999999999999995"/><circle cx="170" cy="632" r="21.147798077614443" fill="#fff7b5" opacity="0.53"/><circle cx="253" cy="679" r="7.108913837399431" fill="#46d6ff" opacity="0.62"/><circle cx="336" cy="726" r="13.475387530939226" fill="#ffcf28" opacity="0.35"/><circle cx="419" cy="773" r="17.794386564209955" fill="#ff4fc7" opacity="0.43999999999999995"/><circle cx="502" cy="620" r="19.73527078329626" fill="#ff6d22" opacity="0.53"/><circle cx="585" cy="667" r="21.432298564313584" fill="#fff7b5" opacity="0.62"/><circle cx="668" cy="714" r="5.272483689529086" fill="#46d6ff" opacity="0.35"/><circle cx="751" cy="761" r="11.421473102304684" fill="#ffcf28" opacity="0.43999999999999995"/><circle cx="834" cy="608" r="17.65185506750986" fill="#ff4fc7" opacity="0.53"/><circle cx="917" cy="655" r="21.651855067509864" fill="#ff6d22" opacity="0.62"/><circle cx="1000" cy="702" r="23.42147310230469" fill="#fff7b5" opacity="0.35"/><circle cx="63" cy="749" r="5.272483689529073" fill="#46d6ff" opacity="0.43999999999999995"/><circle cx="146" cy="596" r="9.432298564313601" fill="#ffcf28" opacity="0.53"/><circle cx="229" cy="643" r="15.73527078329629" fill="#ff4fc7" opacity="0.62"/>
  <rect x="0" y="1010" width="1080" height="160" fill="#1b0e12" opacity="0.82"/>

    <g opacity="0.32">
      <circle cx="80.07260277091513" cy="760" r="35" fill="#090909"/>
      <path d="M22.072602770915125 884 C34.072602770915125 812 128.07260277091513 810 142.07260277091513 884 Z" fill="#0d0d0f"/>
    </g>
    <g opacity="0.48">
      <circle cx="203.6240633514049" cy="798" r="43" fill="#090909"/>
      <path d="M145.6240633514049 922 C157.6240633514049 850 251.6240633514049 848 265.6240633514049 922 Z" fill="#0d0d0f"/>
    </g>
    <g opacity="0.32">
      <circle cx="333.03753068247465" cy="836" r="51" fill="#090909"/>
      <path d="M275.03753068247465 960 C287.03753068247465 888 381.03753068247465 886 395.03753068247465 960 Z" fill="#0d0d0f"/>
    </g>
    <g opacity="0.48">
      <circle cx="459.65830631236764" cy="760" r="35" fill="#090909"/>
      <path d="M401.65830631236764 884 C413.65830631236764 812 507.65830631236764 810 521.6583063123676 884 Z" fill="#0d0d0f"/>
    </g>
    <g opacity="0.32">
      <circle cx="577.3992796602314" cy="798" r="43" fill="#090909"/>
      <path d="M519.3992796602314 922 C531.3992796602314 850 625.3992796602314 848 639.3992796602314 922 Z" fill="#0d0d0f"/>
    </g>
    <g opacity="0.48">
      <circle cx="688.3373894120049" cy="836" r="51" fill="#090909"/>
      <path d="M630.3373894120049 960 C642.3373894120049 888 736.3373894120049 886 750.3373894120049 960 Z" fill="#0d0d0f"/>
    </g>
    <g opacity="0.32">
      <circle cx="800.8040956708595" cy="760" r="35" fill="#090909"/>
      <path d="M742.8040956708595 884 C754.8040956708595 812 848.8040956708595 810 862.8040956708595 884 Z" fill="#0d0d0f"/>
    </g>
    <g opacity="0.48">
      <circle cx="921.7254739608402" cy="798" r="43" fill="#090909"/>
      <path d="M863.7254739608402 922 C875.7254739608402 850 969.7254739608402 848 983.7254739608402 922 Z" fill="#0d0d0f"/>
    </g>
    <g opacity="0.32">
      <circle cx="1050.2544133312927" cy="836" r="51" fill="#090909"/>
      <path d="M992.2544133312927 960 C1004.2544133312927 888 1098.2544133312927 886 1112.2544133312927 960 Z" fill="#0d0d0f"/>
    </g>
      <rect x="30" y="612" width="116" height="66" rx="8" fill="#ffcf21"/>
      <text x="88" y="655" font-family="Apple SD Gothic Neo, sans-serif" font-size="30" font-weight="950" fill="#f20e55" text-anchor="middle">핫클립</text>

  <g transform="translate(305 782.0585691564715) scale(0.88)">
    <path d="M-95 250 C-75 104 70 100 100 250 Z" fill="#101010"/>

  <g>
    <circle cx="0" cy="55" r="64" fill="#e5b082"/>
    <path d="M-64 42.2 C-60.8 -14.120000000000005 52.48 -21.799999999999997 64 51.16 C22.4 32.6 -22.4 33.879999999999995 -64 42.2 Z" fill="#17110f"/>
    <circle cx="-20.48" cy="57.56" r="3.52" fill="#191919"/>
    <circle cx="19.2" cy="57.56" r="3.52" fill="#191919"/>
    <path d="M-14.08 75.48 Q0 85.08 15.36 74.84" stroke="#50211d" stroke-width="3.84" fill="none" stroke-linecap="round"/>
  </g>
    <path d="M-78 172 C-132 220 -142 300 -118 364" stroke="#e5b082" stroke-width="26" fill="none" stroke-linecap="round"/>
    <path d="M82 173 C138 216 150 287 125 354" stroke="#e5b082" stroke-width="26" fill="none" stroke-linecap="round"/>
  </g>

  <g transform="translate(590 761.9816645036789) scale(1.3)">
    <path d="M-95 250 C-75 104 70 100 100 250 Z" fill="#fff1dc"/>

  <g>
    <circle cx="0" cy="55" r="64" fill="#f2bd94"/>
    <path d="M-64 42.2 C-60.8 -14.120000000000005 52.48 -21.799999999999997 64 51.16 C22.4 32.6 -22.4 33.879999999999995 -64 42.2 Z" fill="#2b1714"/>
    <circle cx="-20.48" cy="57.56" r="3.52" fill="#191919"/>
    <circle cx="19.2" cy="57.56" r="3.52" fill="#191919"/>
    <path d="M-14.08 75.48 Q0 85.08 15.36 74.84" stroke="#50211d" stroke-width="3.84" fill="none" stroke-linecap="round"/>
  </g>
    <path d="M-78 172 C-132 220 -142 300 -118 364" stroke="#f2bd94" stroke-width="26" fill="none" stroke-linecap="round"/>
    <path d="M82 173 C138 216 150 287 125 354" stroke="#f2bd94" stroke-width="26" fill="none" stroke-linecap="round"/>
  </g>

  <g transform="translate(875 792.5621885990413) scale(1.05)">
    <path d="M-95 250 C-75 104 70 100 100 250 Z" fill="#18141a"/>

  <g>
    <circle cx="0" cy="55" r="64" fill="#e7b08e"/>
    <path d="M-64 42.2 C-60.8 -14.120000000000005 52.48 -21.799999999999997 64 51.16 C22.4 32.6 -22.4 33.879999999999995 -64 42.2 Z" fill="#3a1d1b"/>
    <circle cx="-20.48" cy="57.56" r="3.52" fill="#191919"/>
    <circle cx="19.2" cy="57.56" r="3.52" fill="#191919"/>
    <path d="M-14.08 75.48 Q0 85.08 15.36 74.84" stroke="#50211d" stroke-width="3.84" fill="none" stroke-linecap="round"/>
  </g>
    <path d="M-78 172 C-132 220 -142 300 -118 364" stroke="#e7b08e" stroke-width="26" fill="none" stroke-linecap="round"/>
    <path d="M82 173 C138 216 150 287 125 354" stroke="#e7b08e" stroke-width="26" fill="none" stroke-linecap="round"/>
  </g>

  <g transform="translate(454 905) rotate(-24)">
    <rect x="-12" y="0" width="24" height="128" rx="12" fill="#101010"/>
    <circle cx="0" cy="-18" r="34" fill="#111"/>
    <circle cx="0" cy="-18" r="21" fill="#2e394b"/>
  </g>
      <path d="M0 1118 C230 1078 410 1138 584 1097 C755 1057 884 1112 1080 1068 L1080 1170 L0 1170 Z" fill="#0b0708" opacity="0.42"/>
    </g>
    <rect x="0" y="550" width="1080" height="620" fill="none"/>
    <rect x="0" y="980" width="1080" height="190" fill="url(#captionFade)" opacity="0"/>
  </g>

  <g font-family="Apple SD Gothic Neo, sans-serif" text-anchor="middle" font-weight="950" letter-spacing="-2.4" filter="url(#captionGlow)">
    <text x="540" y="1078" font-size="58" fill="#ff72df">비가 왜 오는지 알아요?</text>
  </g>

  <rect x="0" y="1170" width="1080" height="750" fill="url(#pageBg)"/>
  <g font-family="Apple SD Gothic Neo, sans-serif">
    <g filter="url(#softShadow)">
      <rect x="118" y="1342" width="844" height="78" rx="39" fill="#565656" opacity="0.82"/>
      <circle cx="165" cy="1381" r="28" fill="#ffd8b7"/>
      <path d="M145 1372 C150 1349 182 1348 188 1373 C174 1363 158 1363 145 1372 Z" fill="#3b201a"/>
      <text x="215" y="1390" font-size="28" font-weight="850" fill="#fff">핵심 대사는 컬러 자막으로 박음</text>
    </g>
    <circle cx="150" cy="1524" r="34" fill="#ffd21f"/>
    <text x="150" y="1537" font-size="37" font-weight="950" fill="#fff" text-anchor="middle">♪</text>
    <text x="204" y="1536" font-size="31" font-weight="900" fill="#111">@mychannel</text>
    <rect x="365" y="1490" width="122" height="68" rx="34" fill="#fff"/>
    <text x="426" y="1533" font-size="30" font-weight="950" fill="#111" text-anchor="middle">구독</text>
    <text x="118" y="1642" font-size="30" font-weight="840" fill="#151515">내 채널 · interview clip format</text>
    <rect x="118" y="1732" width="844" height="34" rx="17" fill="#9e9e9e"/>
    <rect x="118" y="1732" width="382.4375" height="34" rx="17" fill="#ff174b"/>
  </g>
</svg>