<?xml version="1.0" encoding="UTF-8"?>
<svg xmlns="http://www.w3.org/2000/svg" width="1080" height="1920" viewBox="0 0 1080 1920">

  <defs>
    <linearGradient id="pageBg" x1="0" x2="0" y1="0" y2="1">
      <stop offset="0" stop-color="#ffffff"/>
      <stop offset="0.58" stop-color="#ffffff"/>
      <stop offset="1" stop-color="#d7d7d7"/>
    </linearGradient>
    <linearGradient id="clubBg" x1="0" x2="1" y1="0" y2="1">
      <stop offset="0" stop-color="#140917"/>
      <stop offset="0.45" stop-color="#2b1722"/>
      <stop offset="1" stop-color="#5d2e16"/>
    </linearGradient>
    <filter id="softShadow" x="-20%" y="-20%" width="140%" height="140%">
      <feDropShadow dx="0" dy="13" stdDeviation="12" flood-color="#000" flood-opacity="0.32"/>
    </filter>
    <filter id="captionGlow" x="-20%" y="-20%" width="140%" height="140%">
      <feDropShadow dx="0" dy="4" stdDeviation="0" flood-color="#000" flood-opacity="0.9"/>
      <feDropShadow dx="0" dy="0" stdDeviation="6" flood-color="#000" flood-opacity="0.65"/>
    </filter>
    <clipPath id="mediaClip">
      <rect x="0" y="550" width="1080" height="620"/>
    </clipPath>
  </defs>
  <rect width="1080" height="1920" fill="url(#pageBg)"/>

  <rect x="0" y="0" width="1080" height="550" fill="#fff"/>
  <g font-family="AppleMyungjo, Hiragino Mincho ProN, serif" text-anchor="middle" fill="#050505" font-weight="900" letter-spacing="-6">
    <text x="540" y="302" font-size="92">요즘 MZ들의</text>
    <text x="540" y="420" font-size="92">신박한 헌팅 방법</text>
  </g>
  <g opacity="0.8467062859407728">
    <rect x="334" y="260" width="412" height="58" rx="29" fill="#111" opacity="0.68"/>
    <text x="540" y="298" font-family="Apple SD Gothic Neo, sans-serif" font-size="27" font-weight="800" fill="#fff" text-anchor="middle">제일 기억에 남는 한마디는?</text>
  </g>

  <g clip-path="url(#mediaClip)">
    <g transform="translate(36.008418834655856 -3.929478758513693) scale(1.03)">

  <rect x="0" y="550" width="1080" height="620" fill="url(#clubBg)"/>
  <rect x="0" y="550" width="1080" height="620" fill="#000" opacity="0.16"/>
  <circle cx="28" cy="574" r="9.91481456572267" fill="#46d6ff" opacity="0.35"/><circle cx="111" cy="621" r="12.096333643946457" fill="#ffcf28" opacity="0.43999999999999995"/><circle cx="194" cy="668" r="13.659757282200648" fill="#ff4fc7" opacity="0.53"/><circle cx="277" cy="715" r="17.130578974976043" fill="#ff6d22" opacity="0.62"/><circle cx="360" cy="762" r="23.057288149201053" fill="#fff7b5" opacity="0.35"/><circle cx="443" cy="609" r="9.44286490364243" fill="#46d6ff" opacity="0.43999999999999995"/><circle cx="526" cy="656" r="13.814676462024988" fill="#ffcf28" opacity="0.53"/><circle cx="609" cy="703" r="15.787342876232174" fill="#ff4fc7" opacity="0.62"/><circle cx="692" cy="750" r="17.46218051067862" fill="#ff6d22" opacity="0.35"/><circle cx="775" cy="597" r="21.249203071494524" fill="#fff7b5" opacity="0.43999999999999995"/><circle cx="858" cy="644" r="7.36916010939265" fill="#46d6ff" opacity="0.53"/><circle cx="941" cy="691" r="13.624731732467179" fill="#ffcf28" opacity="0.62"/><circle cx="1024" cy="738" r="17.678034527800477" fill="#ff4fc7" opacity="0.35"/><circle cx="87" cy="585" r="19.473820539709358" fill="#ff6d22" opacity="0.43999999999999995"/><circle cx="170" cy="632" r="21.29674136983751" fill="#fff7b5" opacity="0.53"/><circle cx="253" cy="679" r="5.403323580136448" fill="#46d6ff" opacity="0.62"/><circle cx="336" cy="726" r="11.683095492819087" fill="#ffcf28" opacity="0.35"/><circle cx="419" cy="773" r="17.773090272617686" fill="#ff4fc7" opacity="0.43999999999999995"/><circle cx="502" cy="620" r="21.50704368797777" fill="#ff6d22" opacity="0.53"/><circle cx="585" cy="667" r="23.160711068914214" fill="#fff7b5" opacity="0.62"/><circle cx="668" cy="714" r="5.166048933756989" fill="#46d6ff" opacity="0.35"/><circle cx="751" cy="761" r="9.590509928413402" fill="#ffcf28" opacity="0.43999999999999995"/><circle cx="834" cy="608" r="15.99414335094782" fill="#ff4fc7" opacity="0.53"/><circle cx="917" cy="655" r="21.885600821290694" fill="#ff6d22" opacity="0.62"/><circle cx="1000" cy="702" r="25.304400570245885" fill="#fff7b5" opacity="0.35"/><circle cx="63" cy="749" r="6.852952387243677" fill="#46d6ff" opacity="0.43999999999999995"/><circle cx="146" cy="596" r="9.072164300225905" fill="#ffcf28" opacity="0.53"/><circle cx="229" cy="643" r="13.807810075793356" fill="#ff4fc7" opacity="0.62"/>
  <rect x="0" y="1010" width="1080" height="160" fill="#1b0e12" opacity="0.82"/>

    <g opacity="0.32">
      <circle cx="83.62406335140491" cy="760" r="35" fill="#090909"/>
      <path d="M25.624063351404914 884 C37.624063351404914 812 131.6240633514049 810 145.6240633514049 884 Z" fill="#0d0d0f"/>
    </g>
    <g opacity="0.48">
      <circle cx="213.03753068247465" cy="798" r="43" fill="#090909"/>
      <path d="M155.03753068247465 922 C167.03753068247465 850 261.03753068247465 848 275.03753068247465 922 Z" fill="#0d0d0f"/>
    </g>
    <g opacity="0.32">
      <circle cx="339.65830631236764" cy="836" r="51" fill="#090909"/>
      <path d="M281.65830631236764 960 C293.65830631236764 888 387.65830631236764 886 401.65830631236764 960 Z" fill="#0d0d0f"/>
    </g>
    <g opacity="0.48">
      <circle cx="457.39927966023146" cy="760" r="35" fill="#090909"/>
      <path d="M399.39927966023146 884 C411.39927966023146 812 505.39927966023146 810 519.3992796602315 884 Z" fill="#0d0d0f"/>
    </g>
    <g opacity="0.32">
      <circle cx="568.3373894120049" cy="798" r="43" fill="#090909"/>
      <path d="M510.3373894120049 922 C522.3373894120049 850 616.3373894120049 848 630.3373894120049 922 Z" fill="#0d0d0f"/>
    </g>
    <g opacity="0.48">
      <circle cx="680.8040956708595" cy="836" r="51" fill="#090909"/>
      <path d="M622.8040956708595 960 C634.8040956708595 888 728.8040956708595 886 742.8040956708595 960 Z" fill="#0d0d0f"/>
    </g>
    <g opacity="0.32">
      <circle cx="801.7254739608402" cy="760" r="35" fill="#090909"/>
      <path d="M743.7254739608402 884 C755.7254739608402 812 849.7254739608402 810 863.7254739608402 884 Z" fill="#0d0d0f"/>
    </g>
    <g opacity="0.48">
      <circle cx="930.2544133312925" cy="798" r="43" fill="#090909"/>
      <path d="M872.2544133312925 922 C884.2544133312925 850 978.2544133312925 848 992.2544133312925 922 Z" fill="#0d0d0f"/>
    </g>
    <g opacity="0.32">
      <circle cx="1058.5494462582417" cy="836" r="51" fill="#090909"/>
      <path d="M1000.5494462582417 960 C1012.5494462582417 888 1106.5494462582417 886 1120.5494462582417 960 Z" fill="#0d0d0f"/>
    </g>
      <rect x="30" y="612" width="116" height="66" rx="8" fill="#ffcf21"/>
      <text x="88" y="655" font-family="Apple SD Gothic Neo, sans-serif" font-size="30" font-weight="950" fill="#f20e55" text-anchor="middle">핫클립</text>

  <g transform="translate(305 775.0000592870413) scale(1.22)">
    <path d="M-95 250 C-75 104 70 100 100 250 Z" fill="#101010"/>

  <g>
    <circle cx="0" cy="55" r="64" fill="#e5b082"/>
    <path d="M-64 42.2 C-60.8 -14.120000000000005 52.48 -21.799999999999997 64 51.16 C22.4 32.6 -22.4 33.879999999999995 -64 42.2 Z" fill="#17110f"/>
    <circle cx="-20.48" cy="57.56" r="3.52" fill="#191919"/>
    <circle cx="19.2" cy="57.56" r="3.52" fill="#191919"/>
    <ellipse cx="0" cy="76.76" rx="11.52" ry="7.04" fill="#4a1e1c"/>
  </g>
    <path d="M-78 172 C-132 220 -142 300 -118 364" stroke="#e5b082" stroke-width="26" fill="none" stroke-linecap="round"/>
    <path d="M82 173 C138 216 150 287 125 354" stroke="#e5b082" stroke-width="26" fill="none" stroke-linecap="round"/>
  </g>

  <g transform="translate(590 755.0011754960226) scale(1)">
    <path d="M-95 250 C-75 104 70 100 100 250 Z" fill="#fff1dc"/>

  <g>
    <circle cx="0" cy="55" r="64" fill="#f2bd94"/>
    <path d="M-64 42.2 C-60.8 -14.120000000000005 52.48 -21.799999999999997 64 51.16 C22.4 32.6 -22.4 33.879999999999995 -64 42.2 Z" fill="#2b1714"/>
    <circle cx="-20.48" cy="57.56" r="3.52" fill="#191919"/>
    <circle cx="19.2" cy="57.56" r="3.52" fill="#191919"/>
    <path d="M-14.08 75.48 Q0 85.08 15.36 74.84" stroke="#50211d" stroke-width="3.84" fill="none" stroke-linecap="round"/>
  </g>
    <path d="M-78 172 C-132 220 -142 300 -118 364" stroke="#f2bd94" stroke-width="26" fill="none" stroke-linecap="round"/>
    <path d="M82 173 C138 216 150 287 125 354" stroke="#f2bd94" stroke-width="26" fill="none" stroke-linecap="round"/>
  </g>

  <g transform="translate(875 792.0450031875991) scale(1.05)">
    <path d="M-95 250 C-75 104 70 100 100 250 Z" fill="#18141a"/>

  <g>
    <circle cx="0" cy="55" r="64" fill="#e7b08e"/>
    <path d="M-64 42.2 C-60.8 -14.120000000000005 52.48 -21.799999999999997 64 51.16 C22.4 32.6 -22.4 33.879999999999995 -64 42.2 Z" fill="#3a1d1b"/>
    <circle cx="-20.48" cy="57.56" r="3.52" fill="#191919"/>
    <circle cx="19.2" cy="57.56" r="3.52" fill="#191919"/>
    <path d="M-14.08 75.48 Q0 85.08 15.36 74.84" stroke="#50211d" stroke-width="3.84" fill="none" stroke-linecap="round"/>
  </g>
    <path d="M-78 172 C-132 220 -142 300 -118 364" stroke="#e7b08e" stroke-width="26" fill="none" stroke-linecap="round"/>
    <path d="M82 173 C138 216 150 287 125 354" stroke="#e7b08e" stroke-width="26" fill="none" stroke-linecap="round"/>
  </g>

  <g transform="translate(410 905) rotate(-16)">
    <rect x="-12" y="0" width="24" height="128" rx="12" fill="#101010"/>
    <circle cx="0" cy="-18" r="34" fill="#111"/>
    <circle cx="0" cy="-18" r="21" fill="#2e394b"/>
  </g>
      <path d="M0 1118 C230 1078 410 1138 584 1097 C755 1057 884 1112 1080 1068 L1080 1170 L0 1170 Z" fill="#0b0708" opacity="0.42"/>
    </g>
    <rect x="0" y="550" width="1080" height="620" fill="none"/>
    <rect x="0" y="980" width="1080" height="190" fill="url(#captionFade)" opacity="0"/>
  </g>

  <g font-family="Apple SD Gothic Neo, sans-serif" text-anchor="middle" font-weight="950" letter-spacing="-2.4" filter="url(#captionGlow)">
    <text x="540" y="1078" font-size="58" fill="#ffffff">뭐라고 했는데...?</text>
  </g>

  <rect x="0" y="1170" width="1080" height="750" fill="url(#pageBg)"/>
  <g font-family="Apple SD Gothic Neo, sans-serif">
    <g filter="url(#softShadow)">
      <rect x="118" y="1342" width="844" height="78" rx="39" fill="#565656" opacity="0.82"/>
      <circle cx="165" cy="1381" r="28" fill="#ffd8b7"/>
      <path d="M145 1372 C150 1349 182 1348 188 1373 C174 1363 158 1363 145 1372 Z" fill="#3b201a"/>
      <text x="215" y="1390" font-size="28" font-weight="850" fill="#fff">상대 반응 컷으로 체류 시간을 늘림</text>
    </g>
    <circle cx="150" cy="1524" r="34" fill="#ffd21f"/>
    <text x="150" y="1537" font-size="37" font-weight="950" fill="#fff" text-anchor="middle">♪</text>
    <text x="204" y="1536" font-size="31" font-weight="900" fill="#111">@mychannel</text>
    <rect x="365" y="1490" width="122" height="68" rx="34" fill="#fff"/>
    <text x="426" y="1533" font-size="30" font-weight="950" fill="#111" text-anchor="middle">구독</text>
    <text x="118" y="1642" font-size="30" font-weight="840" fill="#151515">내 채널 · interview clip format</text>
    <rect x="118" y="1732" width="844" height="34" rx="17" fill="#9e9e9e"/>
    <rect x="118" y="1732" width="417.6041666666667" height="34" rx="17" fill="#ff174b"/>
  </g>
</svg>