<?xml version="1.0" encoding="UTF-8"?>
<svg xmlns="http://www.w3.org/2000/svg" width="1080" height="1920" viewBox="0 0 1080 1920">

  <defs>
    <linearGradient id="pageBg" x1="0" x2="0" y1="0" y2="1">
      <stop offset="0" stop-color="#ffffff"/>
      <stop offset="0.58" stop-color="#ffffff"/>
      <stop offset="1" stop-color="#d7d7d7"/>
    </linearGradient>
    <linearGradient id="clubBg" x1="0" x2="1" y1="0" y2="1">
      <stop offset="0" stop-color="#140917"/>
      <stop offset="0.45" stop-color="#2b1722"/>
      <stop offset="1" stop-color="#5d2e16"/>
    </linearGradient>
    <filter id="softShadow" x="-20%" y="-20%" width="140%" height="140%">
      <feDropShadow dx="0" dy="13" stdDeviation="12" flood-color="#000" flood-opacity="0.32"/>
    </filter>
    <filter id="captionGlow" x="-20%" y="-20%" width="140%" height="140%">
      <feDropShadow dx="0" dy="4" stdDeviation="0" flood-color="#000" flood-opacity="0.9"/>
      <feDropShadow dx="0" dy="0" stdDeviation="6" flood-color="#000" flood-opacity="0.65"/>
    </filter>
    <clipPath id="mediaClip">
      <rect x="0" y="550" width="1080" height="620"/>
    </clipPath>
  </defs>
  <rect width="1080" height="1920" fill="url(#pageBg)"/>

  <rect x="0" y="0" width="1080" height="550" fill="#fff"/>
  <g font-family="AppleMyungjo, Hiragino Mincho ProN, serif" text-anchor="middle" fill="#050505" font-weight="900" letter-spacing="-6">
    <text x="540" y="302" font-size="92">요즘 MZ들의</text>
    <text x="540" y="420" font-size="92">신박한 헌팅 방법</text>
  </g>
  <g opacity="0.8676440746522922">
    <rect x="334" y="260" width="412" height="58" rx="29" fill="#111" opacity="0.68"/>
    <text x="540" y="298" font-family="Apple SD Gothic Neo, sans-serif" font-size="27" font-weight="800" fill="#fff" text-anchor="middle">제일 기억에 남는 한마디는?</text>
  </g>

  <g clip-path="url(#mediaClip)">
    <g transform="translate(39.76590095769604 1.5552188837427605) scale(1.03)">

  <rect x="0" y="550" width="1080" height="620" fill="url(#clubBg)"/>
  <rect x="0" y="550" width="1080" height="620" fill="#000" opacity="0.16"/>
  <circle cx="28" cy="574" r="8.692896900649014" fill="#46d6ff" opacity="0.35"/><circle cx="111" cy="621" r="13.999965730618566" fill="#ffcf28" opacity="0.43999999999999995"/><circle cx="194" cy="668" r="16.715838451058744" fill="#ff4fc7" opacity="0.53"/><circle cx="277" cy="715" r="18.171503551204818" fill="#ff6d22" opacity="0.62"/><circle cx="360" cy="762" r="21.004145458464926" fill="#fff7b5" opacity="0.35"/><circle cx="443" cy="609" r="6.423722257979225" fill="#46d6ff" opacity="0.43999999999999995"/><circle cx="526" cy="656" r="12.958853028390255" fill="#ffcf28" opacity="0.53"/><circle cx="609" cy="703" r="17.981893354823615" fill="#ff4fc7" opacity="0.62"/><circle cx="692" cy="750" r="20.432469456439545" fill="#ff6d22" opacity="0.35"/><circle cx="775" cy="597" r="21.916547818431148" fill="#fff7b5" opacity="0.43999999999999995"/><circle cx="858" cy="644" r="5.041862731090107" fill="#46d6ff" opacity="0.53"/><circle cx="941" cy="691" r="10.71501886008148" fill="#ffcf28" opacity="0.62"/><circle cx="1024" cy="738" r="17.201802172397258" fill="#ff4fc7" opacity="0.35"/><circle cx="87" cy="585" r="21.92468003821187" fill="#ff6d22" opacity="0.43999999999999995"/><circle cx="170" cy="632" r="24.13439486146204" fill="#fff7b5" opacity="0.53"/><circle cx="253" cy="679" r="5.686564072469279" fill="#46d6ff" opacity="0.62"/><circle cx="336" cy="726" r="9.118346296866033" fill="#ffcf28" opacity="0.35"/><circle cx="419" cy="773" r="15.018695083685222" fill="#ff4fc7" opacity="0.43999999999999995"/><circle cx="502" cy="620" r="21.41791287953824" fill="#ff6d22" opacity="0.53"/><circle cx="585" cy="667" r="25.82922806896388" fill="#fff7b5" opacity="0.62"/><circle cx="668" cy="714" r="7.826315480550158" fill="#46d6ff" opacity="0.35"/><circle cx="751" cy="761" r="9.485179294378732" fill="#ffcf28" opacity="0.43999999999999995"/><circle cx="834" cy="608" r="13.232389964271334" fill="#ff4fc7" opacity="0.53"/><circle cx="917" cy="655" r="19.32996177333687" fill="#ff6d22" opacity="0.62"/><circle cx="1000" cy="702" r="25.603776954863235" fill="#fff7b5" opacity="0.35"/><circle cx="63" cy="749" r="9.697042781654925" fill="#46d6ff" opacity="0.43999999999999995"/><circle cx="146" cy="596" r="11.513089909578545" fill="#ffcf28" opacity="0.53"/><circle cx="229" cy="643" r="13.315569442411356" fill="#ff4fc7" opacity="0.62"/>
  <rect x="0" y="1010" width="1080" height="160" fill="#1b0e12" opacity="0.82"/>

    <g opacity="0.32">
      <circle cx="99.80132692059547" cy="760" r="35" fill="#090909"/>
      <path d="M41.80132692059547 884 C53.80132692059547 812 147.80132692059547 810 161.80132692059547 884 Z" fill="#0d0d0f"/>
    </g>
    <g opacity="0.48">
      <circle cx="216.96467748917618" cy="798" r="43" fill="#090909"/>
      <path d="M158.96467748917618 922 C170.96467748917618 850 264.9646774891762 848 278.9646774891762 922 Z" fill="#0d0d0f"/>
    </g>
    <g opacity="0.32">
      <circle cx="327.72473569346414" cy="836" r="51" fill="#090909"/>
      <path d="M269.72473569346414 960 C281.72473569346414 888 375.72473569346414 886 389.72473569346414 960 Z" fill="#0d0d0f"/>
    </g>
    <g opacity="0.48">
      <circle cx="440.5766614082622" cy="760" r="35" fill="#090909"/>
      <path d="M382.5766614082622 884 C394.5766614082622 812 488.5766614082622 810 502.5766614082622 884 Z" fill="#0d0d0f"/>
    </g>
    <g opacity="0.32">
      <circle cx="562.0923611663516" cy="798" r="43" fill="#090909"/>
      <path d="M504.09236116635157 922 C516.0923611663516 850 610.0923611663516 848 624.0923611663516 922 Z" fill="#0d0d0f"/>
    </g>
    <g opacity="0.48">
      <circle cx="690.8783076001523" cy="836" r="51" fill="#090909"/>
      <path d="M632.8783076001523 960 C644.8783076001523 888 738.8783076001523 886 752.8783076001523 960 Z" fill="#0d0d0f"/>
    </g>
    <g opacity="0.32">
      <circle cx="818.8567420768961" cy="760" r="35" fill="#090909"/>
      <path d="M760.8567420768961 884 C772.8567420768961 812 866.8567420768961 810 880.8567420768961 884 Z" fill="#0d0d0f"/>
    </g>
    <g opacity="0.48">
      <circle cx="938.6923287331003" cy="798" r="43" fill="#090909"/>
      <path d="M880.6923287331003 922 C892.6923287331003 850 986.6923287331003 848 1000.6923287331003 922 Z" fill="#0d0d0f"/>
    </g>
    <g opacity="0.32">
      <circle cx="1050.5362284388198" cy="836" r="51" fill="#090909"/>
      <path d="M992.5362284388198 960 C1004.5362284388198 888 1098.5362284388198 886 1112.5362284388198 960 Z" fill="#0d0d0f"/>
    </g>
      <rect x="30" y="612" width="116" height="66" rx="8" fill="#ffcf21"/>
      <text x="88" y="655" font-family="Apple SD Gothic Neo, sans-serif" font-size="30" font-weight="950" fill="#f20e55" text-anchor="middle">핫클립</text>

  <g transform="translate(305 782.7506470175603) scale(1.22)">
    <path d="M-95 250 C-75 104 70 100 100 250 Z" fill="#101010"/>

  <g>
    <circle cx="0" cy="55" r="64" fill="#e5b082"/>
    <path d="M-64 42.2 C-60.8 -14.120000000000005 52.48 -21.799999999999997 64 51.16 C22.4 32.6 -22.4 33.879999999999995 -64 42.2 Z" fill="#17110f"/>
    <circle cx="-20.48" cy="57.56" r="3.52" fill="#191919"/>
    <circle cx="19.2" cy="57.56" r="3.52" fill="#191919"/>
    <ellipse cx="0" cy="76.76" rx="11.52" ry="7.04" fill="#4a1e1c"/>
  </g>
    <path d="M-78 172 C-132 220 -142 300 -118 364" stroke="#e5b082" stroke-width="26" fill="none" stroke-linecap="round"/>
    <path d="M82 173 C138 216 150 287 125 354" stroke="#e5b082" stroke-width="26" fill="none" stroke-linecap="round"/>
  </g>

  <g transform="translate(590 762.6800534647431) scale(1)">
    <path d="M-95 250 C-75 104 70 100 100 250 Z" fill="#fff1dc"/>

  <g>
    <circle cx="0" cy="55" r="64" fill="#f2bd94"/>
    <path d="M-64 42.2 C-60.8 -14.120000000000005 52.48 -21.799999999999997 64 51.16 C22.4 32.6 -22.4 33.879999999999995 -64 42.2 Z" fill="#2b1714"/>
    <circle cx="-20.48" cy="57.56" r="3.52" fill="#191919"/>
    <circle cx="19.2" cy="57.56" r="3.52" fill="#191919"/>
    <path d="M-14.08 75.48 Q0 85.08 15.36 74.84" stroke="#50211d" stroke-width="3.84" fill="none" stroke-linecap="round"/>
  </g>
    <path d="M-78 172 C-132 220 -142 300 -118 364" stroke="#f2bd94" stroke-width="26" fill="none" stroke-linecap="round"/>
    <path d="M82 173 C138 216 150 287 125 354" stroke="#f2bd94" stroke-width="26" fill="none" stroke-linecap="round"/>
  </g>

  <g transform="translate(875 793.2802975805174) scale(1.05)">
    <path d="M-95 250 C-75 104 70 100 100 250 Z" fill="#18141a"/>

  <g>
    <circle cx="0" cy="55" r="64" fill="#e7b08e"/>
    <path d="M-64 42.2 C-60.8 -14.120000000000005 52.48 -21.799999999999997 64 51.16 C22.4 32.6 -22.4 33.879999999999995 -64 42.2 Z" fill="#3a1d1b"/>
    <circle cx="-20.48" cy="57.56" r="3.52" fill="#191919"/>
    <circle cx="19.2" cy="57.56" r="3.52" fill="#191919"/>
    <path d="M-14.08 75.48 Q0 85.08 15.36 74.84" stroke="#50211d" stroke-width="3.84" fill="none" stroke-linecap="round"/>
  </g>
    <path d="M-78 172 C-132 220 -142 300 -118 364" stroke="#e7b08e" stroke-width="26" fill="none" stroke-linecap="round"/>
    <path d="M82 173 C138 216 150 287 125 354" stroke="#e7b08e" stroke-width="26" fill="none" stroke-linecap="round"/>
  </g>

  <g transform="translate(410 905) rotate(-16)">
    <rect x="-12" y="0" width="24" height="128" rx="12" fill="#101010"/>
    <circle cx="0" cy="-18" r="34" fill="#111"/>
    <circle cx="0" cy="-18" r="21" fill="#2e394b"/>
  </g>
      <path d="M0 1118 C230 1078 410 1138 584 1097 C755 1057 884 1112 1080 1068 L1080 1170 L0 1170 Z" fill="#0b0708" opacity="0.42"/>
    </g>
    <rect x="0" y="550" width="1080" height="620" fill="none"/>
    <rect x="0" y="980" width="1080" height="190" fill="url(#captionFade)" opacity="0"/>
  </g>

  <g font-family="Apple SD Gothic Neo, sans-serif" text-anchor="middle" font-weight="950" letter-spacing="-2.4" filter="url(#captionGlow)">
    <text x="540" y="1078" font-size="58" fill="#ffffff">뭐라고 했는데...?</text>
  </g>

  <rect x="0" y="1170" width="1080" height="750" fill="url(#pageBg)"/>
  <g font-family="Apple SD Gothic Neo, sans-serif">
    <g filter="url(#softShadow)">
      <rect x="118" y="1342" width="844" height="78" rx="39" fill="#565656" opacity="0.82"/>
      <circle cx="165" cy="1381" r="28" fill="#ffd8b7"/>
      <path d="M145 1372 C150 1349 182 1348 188 1373 C174 1363 158 1363 145 1372 Z" fill="#3b201a"/>
      <text x="215" y="1390" font-size="28" font-weight="850" fill="#fff">상대 반응 컷으로 체류 시간을 늘림</text>
    </g>
    <circle cx="150" cy="1524" r="34" fill="#ffd21f"/>
    <text x="150" y="1537" font-size="37" font-weight="950" fill="#fff" text-anchor="middle">♪</text>
    <text x="204" y="1536" font-size="31" font-weight="900" fill="#fff">@mychannel</text>
    <rect x="365" y="1490" width="122" height="68" rx="34" fill="#fff"/>
    <text x="426" y="1533" font-size="30" font-weight="950" fill="#111" text-anchor="middle">구독</text>
    <text x="118" y="1642" font-size="30" font-weight="780" fill="#fff">내 채널 · interview clip format</text>
    <rect x="118" y="1732" width="844" height="34" rx="17" fill="#9e9e9e"/>
    <rect x="118" y="1732" width="490.13541666666663" height="34" rx="17" fill="#ff174b"/>
  </g>
</svg>