<?xml version="1.0" encoding="UTF-8"?>
<svg xmlns="http://www.w3.org/2000/svg" width="1080" height="1920" viewBox="0 0 1080 1920">

  <defs>
    <linearGradient id="pageBg" x1="0" x2="0" y1="0" y2="1">
      <stop offset="0" stop-color="#ffffff"/>
      <stop offset="0.58" stop-color="#ffffff"/>
      <stop offset="1" stop-color="#d7d7d7"/>
    </linearGradient>
    <linearGradient id="clubBg" x1="0" x2="1" y1="0" y2="1">
      <stop offset="0" stop-color="#140917"/>
      <stop offset="0.45" stop-color="#2b1722"/>
      <stop offset="1" stop-color="#5d2e16"/>
    </linearGradient>
    <filter id="softShadow" x="-20%" y="-20%" width="140%" height="140%">
      <feDropShadow dx="0" dy="13" stdDeviation="12" flood-color="#000" flood-opacity="0.32"/>
    </filter>
    <filter id="captionGlow" x="-20%" y="-20%" width="140%" height="140%">
      <feDropShadow dx="0" dy="4" stdDeviation="0" flood-color="#000" flood-opacity="0.9"/>
      <feDropShadow dx="0" dy="0" stdDeviation="6" flood-color="#000" flood-opacity="0.65"/>
    </filter>
    <clipPath id="mediaClip">
      <rect x="0" y="550" width="1080" height="620"/>
    </clipPath>
  </defs>
  <rect width="1080" height="1920" fill="url(#pageBg)"/>

  <rect x="0" y="0" width="1080" height="550" fill="#fff"/>
  <g font-family="AppleMyungjo, Hiragino Mincho ProN, serif" text-anchor="middle" fill="#050505" font-weight="900" letter-spacing="-6">
    <text x="540" y="302" font-size="92">요즘 MZ들의</text>
    <text x="540" y="420" font-size="92">신박한 헌팅 방법</text>
  </g>
  <g opacity="0.9490935401395766">
    <rect x="334" y="260" width="412" height="58" rx="29" fill="#111" opacity="0.68"/>
    <text x="540" y="298" font-family="Apple SD Gothic Neo, sans-serif" font-size="27" font-weight="800" fill="#fff" text-anchor="middle">제일 기억에 남는 한마디는?</text>
  </g>

  <g clip-path="url(#mediaClip)">
    <g transform="translate(-17.67815516155371 -3.3098104156639017) scale(1.14)">

  <rect x="0" y="550" width="1080" height="620" fill="url(#clubBg)"/>
  <rect x="0" y="550" width="1080" height="620" fill="#000" opacity="0.16"/>
  <circle cx="28" cy="574" r="5.0008566875611065" fill="#46d6ff" opacity="0.35"/><circle cx="111" cy="621" r="10.238680940462446" fill="#ffcf28" opacity="0.43999999999999995"/><circle cx="194" cy="668" r="16.78385313014543" fill="#ff4fc7" opacity="0.53"/><circle cx="277" cy="715" r="21.99832098444664" fill="#ff6d22" opacity="0.62"/><circle cx="360" cy="762" r="24.62329749653975" fill="#fff7b5" opacity="0.35"/><circle cx="443" cy="609" r="6.08398440768793" fill="#46d6ff" opacity="0.43999999999999995"/><circle cx="526" cy="656" r="9.012361075096933" fill="#ffcf28" opacity="0.53"/><circle cx="609" cy="703" r="14.519157208491087" fill="#ff4fc7" opacity="0.62"/><circle cx="692" cy="750" r="21.04258968785186" fill="#ff6d22" opacity="0.35"/><circle cx="775" cy="597" r="25.96713929101702" fill="#fff7b5" opacity="0.43999999999999995"/><circle cx="858" cy="644" r="8.334517148084437" fill="#46d6ff" opacity="0.53"/><circle cx="941" cy="691" r="9.836924113364084" fill="#ffcf28" opacity="0.62"/><circle cx="1024" cy="738" r="13.06309701452194" fill="#ff4fc7" opacity="0.35"/><circle cx="87" cy="585" r="18.815101953268925" fill="#ff6d22" opacity="0.43999999999999995"/><circle cx="170" cy="632" r="25.276998684682493" fill="#fff7b5" opacity="0.53"/><circle cx="253" cy="679" r="9.897049337170479" fill="#46d6ff" opacity="0.62"/><circle cx="336" cy="726" r="12.032575965687437" fill="#ffcf28" opacity="0.35"/><circle cx="419" cy="773" r="13.616091519245906" fill="#ff4fc7" opacity="0.43999999999999995"/><circle cx="502" cy="620" r="17.152264369763223" fill="#ff6d22" opacity="0.53"/><circle cx="585" cy="667" r="23.121847949381973" fill="#fff7b5" opacity="0.62"/><circle cx="668" cy="714" r="9.483383350728097" fill="#46d6ff" opacity="0.35"/><circle cx="751" cy="761" r="13.789156483348899" fill="#ffcf28" opacity="0.43999999999999995"/><circle cx="834" cy="608" r="15.722235742166102" fill="#ff4fc7" opacity="0.53"/><circle cx="917" cy="655" r="17.424969287261582" fill="#ff6d22" opacity="0.62"/><circle cx="1000" cy="702" r="21.27845691836262" fill="#fff7b5" opacity="0.35"/><circle cx="63" cy="749" r="7.434557629230301" fill="#46d6ff" opacity="0.43999999999999995"/><circle cx="146" cy="596" r="13.658488876516936" fill="#ffcf28" opacity="0.53"/><circle cx="229" cy="643" r="17.645162264309107" fill="#ff4fc7" opacity="0.62"/>
  <rect x="0" y="1010" width="1080" height="160" fill="#1b0e12" opacity="0.82"/>

    <g opacity="0.32">
      <circle cx="94.68222402931897" cy="760" r="35" fill="#090909"/>
      <path d="M36.682224029318974 884 C48.682224029318974 812 142.68222402931897 810 156.68222402931897 884 Z" fill="#0d0d0f"/>
    </g>
    <g opacity="0.48">
      <circle cx="205.0944891983564" cy="798" r="43" fill="#090909"/>
      <path d="M147.0944891983564 922 C159.0944891983564 850 253.0944891983564 848 267.0944891983564 922 Z" fill="#0d0d0f"/>
    </g>
    <g opacity="0.32">
      <circle cx="320.0168583755028" cy="836" r="51" fill="#090909"/>
      <path d="M262.0168583755028 960 C274.0168583755028 888 368.0168583755028 886 382.0168583755028 960 Z" fill="#0d0d0f"/>
    </g>
    <g opacity="0.48">
      <circle cx="444.1176819225955" cy="760" r="35" fill="#090909"/>
      <path d="M386.1176819225955 884 C398.1176819225955 812 492.1176819225955 810 506.1176819225955 884 Z" fill="#0d0d0f"/>
    </g>
    <g opacity="0.32">
      <circle cx="573.6266815823542" cy="798" r="43" fill="#090909"/>
      <path d="M515.6266815823542 922 C527.6266815823542 850 621.6266815823542 848 635.6266815823542 922 Z" fill="#0d0d0f"/>
    </g>
    <g opacity="0.48">
      <circle cx="699.8013269205954" cy="836" r="51" fill="#090909"/>
      <path d="M641.8013269205954 960 C653.8013269205954 888 747.8013269205954 886 761.8013269205954 960 Z" fill="#0d0d0f"/>
    </g>
    <g opacity="0.32">
      <circle cx="816.9646774891762" cy="760" r="35" fill="#090909"/>
      <path d="M758.9646774891762 884 C770.9646774891762 812 864.9646774891762 810 878.9646774891762 884 Z" fill="#0d0d0f"/>
    </g>
    <g opacity="0.48">
      <circle cx="927.7247356934641" cy="798" r="43" fill="#090909"/>
      <path d="M869.7247356934641 922 C881.7247356934641 850 975.7247356934641 848 989.7247356934641 922 Z" fill="#0d0d0f"/>
    </g>
    <g opacity="0.32">
      <circle cx="1040.5766614082622" cy="836" r="51" fill="#090909"/>
      <path d="M982.5766614082622 960 C994.5766614082622 888 1088.5766614082622 886 1102.5766614082622 960 Z" fill="#0d0d0f"/>
    </g>
      <rect x="30" y="612" width="116" height="66" rx="8" fill="#ffcf21"/>
      <text x="88" y="655" font-family="Apple SD Gothic Neo, sans-serif" font-size="30" font-weight="950" fill="#f20e55" text-anchor="middle">핫클립</text>

  <g transform="translate(305 775.4205062295373) scale(0.88)">
    <path d="M-95 250 C-75 104 70 100 100 250 Z" fill="#101010"/>

  <g>
    <circle cx="0" cy="55" r="64" fill="#e5b082"/>
    <path d="M-64 42.2 C-60.8 -14.120000000000005 52.48 -21.799999999999997 64 51.16 C22.4 32.6 -22.4 33.879999999999995 -64 42.2 Z" fill="#17110f"/>
    <circle cx="-20.48" cy="57.56" r="3.52" fill="#191919"/>
    <circle cx="19.2" cy="57.56" r="3.52" fill="#191919"/>
    <path d="M-14.08 75.48 Q0 85.08 15.36 74.84" stroke="#50211d" stroke-width="3.84" fill="none" stroke-linecap="round"/>
  </g>
    <path d="M-78 172 C-132 220 -142 300 -118 364" stroke="#e5b082" stroke-width="26" fill="none" stroke-linecap="round"/>
    <path d="M82 173 C138 216 150 287 125 354" stroke="#e5b082" stroke-width="26" fill="none" stroke-linecap="round"/>
  </g>

  <g transform="translate(590 755.4548998882875) scale(1.3)">
    <path d="M-95 250 C-75 104 70 100 100 250 Z" fill="#fff1dc"/>

  <g>
    <circle cx="0" cy="55" r="64" fill="#f2bd94"/>
    <path d="M-64 42.2 C-60.8 -14.120000000000005 52.48 -21.799999999999997 64 51.16 C22.4 32.6 -22.4 33.879999999999995 -64 42.2 Z" fill="#2b1714"/>
    <circle cx="-20.48" cy="57.56" r="3.52" fill="#191919"/>
    <circle cx="19.2" cy="57.56" r="3.52" fill="#191919"/>
    <path d="M-14.08 75.48 Q0 85.08 15.36 74.84" stroke="#50211d" stroke-width="3.84" fill="none" stroke-linecap="round"/>
  </g>
    <path d="M-78 172 C-132 220 -142 300 -118 364" stroke="#f2bd94" stroke-width="26" fill="none" stroke-linecap="round"/>
    <path d="M82 173 C138 216 150 287 125 354" stroke="#f2bd94" stroke-width="26" fill="none" stroke-linecap="round"/>
  </g>

  <g transform="translate(875 793.8887974794214) scale(1.05)">
    <path d="M-95 250 C-75 104 70 100 100 250 Z" fill="#18141a"/>

  <g>
    <circle cx="0" cy="55" r="64" fill="#e7b08e"/>
    <path d="M-64 42.2 C-60.8 -14.120000000000005 52.48 -21.799999999999997 64 51.16 C22.4 32.6 -22.4 33.879999999999995 -64 42.2 Z" fill="#3a1d1b"/>
    <circle cx="-20.48" cy="57.56" r="3.52" fill="#191919"/>
    <circle cx="19.2" cy="57.56" r="3.52" fill="#191919"/>
    <path d="M-14.08 75.48 Q0 85.08 15.36 74.84" stroke="#50211d" stroke-width="3.84" fill="none" stroke-linecap="round"/>
  </g>
    <path d="M-78 172 C-132 220 -142 300 -118 364" stroke="#e7b08e" stroke-width="26" fill="none" stroke-linecap="round"/>
    <path d="M82 173 C138 216 150 287 125 354" stroke="#e7b08e" stroke-width="26" fill="none" stroke-linecap="round"/>
  </g>

  <g transform="translate(454 905) rotate(-24)">
    <rect x="-12" y="0" width="24" height="128" rx="12" fill="#101010"/>
    <circle cx="0" cy="-18" r="34" fill="#111"/>
    <circle cx="0" cy="-18" r="21" fill="#2e394b"/>
  </g>
      <path d="M0 1118 C230 1078 410 1138 584 1097 C755 1057 884 1112 1080 1068 L1080 1170 L0 1170 Z" fill="#0b0708" opacity="0.42"/>
    </g>
    <rect x="0" y="550" width="1080" height="620" fill="none"/>
    <rect x="0" y="980" width="1080" height="190" fill="url(#captionFade)" opacity="0"/>
  </g>

  <g font-family="Apple SD Gothic Neo, sans-serif" text-anchor="middle" font-weight="950" letter-spacing="-2.4" filter="url(#captionGlow)">
    <text x="540" y="1078" font-size="58" fill="#ff72df">비가 왜 오는지 알아요?</text>
  </g>

  <rect x="0" y="1170" width="1080" height="750" fill="url(#pageBg)"/>
  <g font-family="Apple SD Gothic Neo, sans-serif">
    <g filter="url(#softShadow)">
      <rect x="118" y="1342" width="844" height="78" rx="39" fill="#565656" opacity="0.82"/>
      <circle cx="165" cy="1381" r="28" fill="#ffd8b7"/>
      <path d="M145 1372 C150 1349 182 1348 188 1373 C174 1363 158 1363 145 1372 Z" fill="#3b201a"/>
      <text x="215" y="1390" font-size="28" font-weight="850" fill="#fff">핵심 대사는 컬러 자막으로 박음</text>
    </g>
    <circle cx="150" cy="1524" r="34" fill="#ffd21f"/>
    <text x="150" y="1537" font-size="37" font-weight="950" fill="#fff" text-anchor="middle">♪</text>
    <text x="204" y="1536" font-size="31" font-weight="900" fill="#fff">@mychannel</text>
    <rect x="365" y="1490" width="122" height="68" rx="34" fill="#fff"/>
    <text x="426" y="1533" font-size="30" font-weight="950" fill="#111" text-anchor="middle">구독</text>
    <text x="118" y="1642" font-size="30" font-weight="780" fill="#fff">내 채널 · interview clip format</text>
    <rect x="118" y="1732" width="844" height="34" rx="17" fill="#9e9e9e"/>
    <rect x="118" y="1732" width="314.3020833333333" height="34" rx="17" fill="#ff174b"/>
  </g>
</svg>